<?xml version="1.0" standalone="no"?>
<!DOCTYPE svg PUBLIC "-//W3C//DTD SVG 20010904//EN"
 "http://www.w3.org/TR/2001/REC-SVG-20010904/DTD/svg10.dtd">
<svg version="1.0" xmlns="http://www.w3.org/2000/svg"
 width="201.000000pt" height="251.000000pt" viewBox="0 0 201.000000 251.000000"
 preserveAspectRatio="xMidYMid meet">

<g transform="translate(0.000000,251.000000) scale(0.100000,-0.100000)"
fill="white" stroke="black">
<path d="M622 2489 c-51 -10 -109 -45 -292 -173 -74 -52 -177 -116 -228 -142
-105 -52 -110 -70 -17 -68 41 1 72 11 127 39 106 53 234 141 264 181 33 43 44
43 44 1 0 -46 39 -118 76 -139 17 -10 51 -20 75 -22 24 -2 46 -4 48 -5 2 -1
-2 -8 -9 -16 -18 -22 -5 -59 35 -93 42 -37 97 -54 145 -44 l35 8 3 71 3 71
-45 0 c-54 -1 -88 19 -106 62 -12 29 -11 33 18 63 41 43 53 77 41 119 -21 79
-100 110 -217 87z"/>
<path d="M945 2475 c-56 -55 -18 -149 60 -149 25 0 43 8 60 25 56 57 20 149
-60 149 -25 0 -44 -8 -60 -25z"/>
<path d="M1262 2491 c-44 -11 -80 -46 -91 -89 -12 -42 0 -76 41 -119 29 -30
30 -34 18 -63 -18 -43 -52 -63 -106 -62 l-45 0 3 -71 3 -71 35 -8 c48 -10 103
7 145 44 40 34 53 71 35 93 -7 8 -11 15 -9 16 2 1 24 3 48 5 24 2 58 12 75 22
37 21 76 93 76 139 0 42 11 42 44 -1 30 -40 158 -128 264 -181 55 -28 86 -38
127 -39 93 -2 88 16 -17 68 -51 26 -166 98 -256 161 -90 63 -182 123 -205 134
-49 23 -138 33 -185 22z"/>
<path d="M955 1973 c4 -181 9 -331 12 -335 7 -13 -13 -9 -72 13 -95 35 -145
92 -145 164 0 38 5 42 34 20 30 -23 71 -18 106 11 29 25 30 28 16 43 -22 22
-114 19 -154 -4 -33 -20 -72 -81 -72 -114 0 -33 28 -93 58 -124 38 -40 122
-89 227 -132 97 -41 130 -62 157 -103 37 -56 12 -129 -61 -179 -22 -16 -40
-30 -40 -33 -1 -3 21 -17 47 -31 l48 -27 47 35 c57 42 95 103 103 165 16 113
-61 202 -230 264 -33 13 -52 23 -40 23 11 1 52 -14 90 -33 67 -33 70 -33 97
-17 83 47 146 129 147 190 0 35 -38 95 -72 116 -40 23 -132 26 -154 4 -14 -15
-13 -18 16 -43 35 -29 76 -34 106 -11 29 22 34 18 34 -20 0 -72 -50 -129 -145
-164 -59 -22 -79 -26 -72 -13 3 4 8 154 12 335 l7 327 -57 0 -57 0 7 -327z"/>
<path d="M420 2233 c-70 -59 -216 -153 -237 -153 -7 0 -13 -4 -13 -10 0 -19
99 -11 143 11 41 21 128 79 176 117 23 18 23 21 10 55 l-14 35 -65 -55z"/>
<path d="M1512 2252 c-13 -42 -15 -39 88 -111 89 -62 134 -81 190 -81 27 0 50
5 50 10 0 6 -6 10 -13 10 -21 0 -157 87 -233 150 l-71 59 -11 -37z"/>
<path d="M475 2149 c-22 -22 -69 -59 -104 -82 -55 -36 -61 -43 -42 -45 46 -7
91 9 152 56 103 78 98 70 69 92 -14 11 -27 20 -30 20 -3 0 -24 -18 -45 -41z"/>
<path d="M1460 2170 c-29 -22 -34 -14 69 -92 61 -47 106 -63 152 -56 19 2 13
9 -42 45 -35 23 -82 60 -104 82 -21 23 -42 41 -45 41 -3 0 -16 -9 -30 -20z"/>
<path d="M533 2074 c-35 -35 -63 -66 -63 -69 0 -16 63 -1 96 24 44 32 100 89
93 95 -2 2 -17 6 -34 9 -26 4 -38 -3 -92 -59z"/>
<path d="M1373 2133 c-13 -2 -23 -8 -23 -12 0 -9 78 -83 110 -105 22 -15 80
-23 80 -11 0 8 -132 135 -139 134 -3 -1 -16 -4 -28 -6z"/>
<path d="M805 1507 c-74 -73 -83 -168 -26 -259 22 -34 59 -66 146 -124 126
-84 170 -122 180 -155 13 -40 -4 -86 -46 -124 -23 -20 -39 -38 -37 -39 1 -2
25 -17 51 -35 l49 -33 29 28 c46 44 83 129 83 191 0 82 -34 123 -176 208 -128
77 -153 97 -174 137 -31 59 -6 124 65 168 l40 24 -65 28 c-37 15 -68 28 -71
28 -3 0 -25 -19 -48 -43z"/>
<path d="M988 1482 c-16 -3 -18 -18 -18 -132 0 -109 2 -129 16 -134 9 -4 25
-4 35 -1 17 6 19 18 19 135 0 136 -3 143 -52 132z"/>
<path d="M835 1086 c-74 -75 -80 -158 -19 -264 28 -48 104 -111 176 -148 83
-42 96 -89 43 -152 l-24 -29 28 -28 29 -27 46 42 c72 67 81 142 27 219 -12 16
-54 51 -94 77 -126 82 -162 131 -142 193 8 25 73 91 89 91 6 0 6 -4 -2 -8 -9
-6 -12 -37 -10 -118 3 -101 4 -109 23 -109 19 0 20 8 23 110 l2 110 -65 43
c-36 23 -69 42 -75 42 -6 0 -30 -20 -55 -44z"/>
<path d="M862 688 c-62 -104 -27 -179 133 -281 97 -62 110 -78 109 -141 l0
-51 18 43 c29 65 14 101 -77 192 -110 108 -123 138 -81 186 l23 28 -44 28
c-24 15 -48 28 -53 28 -4 0 -17 -15 -28 -32z"/>
<path d="M995 648 c-9 -24 -1 -143 10 -143 13 0 19 135 6 148 -7 7 -12 5 -16
-5z"/>
<path d="M916 401 c-41 -43 -51 -92 -28 -143 l18 -43 0 54 c-1 50 1 55 41 91
43 37 43 43 7 63 -6 3 -23 -6 -38 -22z"/>
<path d="M999 383 c-3 -4 -2 -91 1 -193 l5 -185 5 185 c4 163 1 221 -11 193z"/>
</g>
</svg>
